<svg fill="#FFFFFF" xmlns="http://www.w3.org/2000/svg" viewBox="0 0 48 48" width="48px" height="48px">
    <path d="M 14.25 6 A 1.50015 1.50015 0 0 0 12.958984 6.7363281 L 8.4804688 14.316406 L 7.4433594 10.792969 A 1.50015 1.50015 0 0 0 5.9960938 9.6972656 A 1.50015 1.50015 0 0 0 4.5644531 11.640625 L 6.5605469 18.423828 A 1.50015 1.50015 0 0 0 7.2460938 19.296875 A 1.50015 1.50015 0 0 0 7.3007812 19.328125 A 1.50015 1.50015 0 0 0 8.7246094 19.351562 A 1.50015 1.50015 0 0 0 8.7265625 19.349609 L 15.207031 17.443359 A 1.5005516 1.5005516 0 0 0 14.359375 14.564453 L 11.283203 15.470703 L 15.105469 9 L 32.894531 9 L 41.757812 24 L 32.894531 39 L 15.105469 39 L 5.7910156 23.236328 A 1.50015 1.50015 0 1 0 3.2089844 24.763672 L 12.958984 41.263672 A 1.50015 1.50015 0 0 0 14.25 42 L 33.75 42 A 1.50015 1.50015 0 0 0 35.041016 41.263672 L 44.791016 24.763672 A 1.50015 1.50015 0 0 0 44.791016 23.236328 L 35.041016 6.7363281 A 1.50015 1.50015 0 0 0 33.75 6 L 14.25 6 z" />
</svg>